<svg width="132" height="132" viewBox="0 0 132 132" fill="none" xmlns="http://www.w3.org/2000/svg">
<circle cx="66" cy="66" r="66" fill="#3D3D3D"/>
<path fill-rule="evenodd" clip-rule="evenodd" d="M100.843 53.4913C102.209 54.8671 103 56.7198 103 58.6871V87.7015C103 91.7675 99.7202 95.0696 95.6881 95.0696H76.8655C72.5249 95.0696 68.9365 91.4567 68.9365 87.0798V72.5834H61.7549V86.9762C61.7549 91.4567 58.1665 95.0696 53.723 95.0696H35.1062C31.177 95.0696 28 91.8712 28 87.9088V58.6871C28 56.4243 29.0269 54.7332 30.1568 53.5949L60.4992 23.0261C63.2691 20.2356 67.7221 20.2335 70.4945 23.0198C70.4947 23.02 70.4949 23.0202 70.4951 23.0204C70.497 23.0223 70.4989 23.0242 70.5008 23.0261L100.843 53.4913ZM97.1281 57.2364C97.5395 57.6509 97.7452 58.169 97.7452 58.6871V87.7015C97.7452 88.8414 96.8195 89.774 95.6881 89.774H76.8655C75.4256 89.774 74.1913 88.5305 74.1913 87.0798V70.0856C74.1913 68.5313 72.957 67.2878 71.4142 67.2878H59.3801C57.7344 67.2878 56.5001 68.6349 56.5001 70.1893V86.9762C56.5001 88.5305 55.2659 89.774 53.723 89.774H35.1062C34.0776 89.774 33.2548 88.945 33.2548 87.9088V58.6871C33.2548 58.169 33.4605 57.7545 33.8719 57.34L64.2143 26.7712C64.9343 26.0459 66.0657 26.0459 66.7857 26.7712L97.1281 57.2364Z" fill="white"/>
</svg>
