<svg width="162" height="162" viewBox="0 0 162 162" fill="none" xmlns="http://www.w3.org/2000/svg">
<circle cx="81" cy="81" r="81" fill="#D9D9D9"/>
<path fill-rule="evenodd" clip-rule="evenodd" d="M55.0011 36.9939C51.9586 36.9939 49.8922 40.0918 51.0555 42.9091L59.5379 63.452C60.8141 66.5429 60.1074 70.0998 57.7472 72.4651L37.236 93.0202C35.5685 94.6913 35.5685 97.4007 37.236 99.0718L58.8707 120.753C59.6715 121.555 60.7576 122.006 61.8901 122.006H101.11C102.242 122.006 103.329 121.555 104.129 120.753L125.764 99.0718C127.432 97.4007 127.432 94.6913 125.764 93.0202L105.158 72.3705C102.861 70.0685 102.125 66.6304 103.277 63.5865L111.148 42.7906C112.208 39.9907 110.144 36.9939 107.156 36.9939H55.0011ZM47.373 44.4362C45.1239 38.9894 49.1189 33 55.0011 33H107.156C112.933 33 116.923 38.7939 114.875 44.2071L107.003 65.0029C106.407 66.5774 106.788 68.3557 107.976 69.5464L128.582 90.1961C131.806 93.4269 131.806 98.6651 128.582 101.896L106.947 123.577C105.399 125.128 103.299 126 101.11 126H61.8901C59.7006 126 57.6008 125.128 56.0526 123.577L34.4179 101.896C31.194 98.6651 31.194 93.4269 34.4179 90.1961L54.9291 69.641C56.15 68.4176 56.5155 66.5778 55.8553 64.9791L47.373 44.4362Z" fill="black" stroke="black" stroke-width="2" stroke-linecap="round"/>
<path d="M52 49.5C52 48.5899 52.6587 48 53.2963 48H110.704C111.341 48 112 48.5899 112 49.5C112 50.4101 111.341 51 110.704 51H53.2963C52.6587 51 52 50.4101 52 49.5Z" fill="black" stroke="black" stroke-width="2"/>
<path d="M36 96.5C36 95.5824 36.6577 95 37.2788 95H126.721C127.342 95 128 95.5824 128 96.5C128 97.4176 127.342 98 126.721 98H37.2788C36.6577 98 36 97.4176 36 96.5Z" fill="black" stroke="black" stroke-width="2"/>
</svg>
