<svg width="132" height="132" viewBox="0 0 132 132" fill="none" xmlns="http://www.w3.org/2000/svg">
<rect width="132" height="132" rx="62" fill="#3D3D3D"/>
<path d="M64.3995 88.2578L48.6665 108.111C47.3935 109.718 44.8155 108.597 45.1214 106.571L47.5776 90.2986C47.7837 88.9332 46.5721 87.751 45.1972 87.8798C43.1716 88.0694 40.4584 88.1403 38.5 87.5C34.391 86.1565 30.4357 80.6457 29.3144 78.9794C29.1048 78.6679 29 78.3008 29 77.9253V35.8603C29 35.3111 29.2258 34.7861 29.6245 34.4084L37.9215 26.5481C38.2929 26.1962 38.7852 26 39.2969 26H93.7602C94.2376 26 94.6992 26.1708 95.0617 26.4815L104.302 34.4014C104.745 34.7813 105 35.336 105 35.9199V78.387C105 78.4623 105.004 78.5356 105.009 78.6107C105.08 79.64 105.266 87.5 94.5 87.5H65.9567C65.3459 87.5 64.7788 87.7791 64.3995 88.2578Z" stroke="white" stroke-width="8"/>
</svg>
