<svg width="132" height="132" viewBox="0 0 132 132" fill="none" xmlns="http://www.w3.org/2000/svg">
<circle cx="66" cy="66" r="66" fill="#3D3D3D"/>
<path d="M107.201 63.9637L98.9267 55.4167L100.563 43.5965C100.745 41.9599 99.7451 40.5051 98.1084 40.2323L86.3791 38.141L80.8327 27.6847C80.1053 26.2299 78.2868 25.6843 76.832 26.4117L66.1029 31.5944L55.3737 26.3208C53.9189 25.5934 52.1914 26.1389 51.3731 27.5937L45.8266 38.141L34.0973 40.2323C32.4607 40.5051 31.3696 42.0508 31.6424 43.5965L33.279 55.4167L25.0048 63.9637C23.9137 65.1457 23.9137 66.9642 25.0048 68.1462L33.279 76.6932L31.6424 88.5134C31.4605 90.15 32.4607 91.6048 34.0973 91.8776L45.8266 93.9689L51.464 104.516C52.1914 105.971 54.0099 106.517 55.4647 105.789L66.1029 100.606L76.832 105.88C77.2866 106.062 77.7413 106.153 78.105 106.153C79.1961 106.153 80.1962 105.607 80.7418 104.516L86.2882 93.9689L98.0175 91.8776C99.6541 91.6048 100.745 90.0591 100.472 88.5134L98.8358 76.6932L107.11 68.1462C108.383 66.9642 108.383 65.1457 107.201 63.9637ZM93.5622 73.6017C92.9257 74.2382 92.6529 75.2384 92.7439 76.1476L94.1987 86.513L83.8332 88.3315C82.924 88.5134 82.1057 89.0589 81.742 89.8773L76.832 99.1516L67.3758 94.5144C66.9212 94.3326 66.4666 94.2417 66.012 94.2417C65.5573 94.2417 65.1027 94.3326 64.6481 94.5144L55.1919 99.1516L50.282 89.8773C49.8273 89.0589 49.0999 88.5134 48.1907 88.3315L37.8253 86.513L39.28 76.1476C39.371 75.2384 39.0982 74.3291 38.4617 73.6017L31.1877 66.055L38.4617 58.5082C39.0982 57.8717 39.371 56.8715 39.28 55.9623L37.8253 45.5969L48.1907 43.7784C49.0999 43.5965 49.9183 43.051 50.3729 42.2326L55.2828 32.9583L64.739 37.5955C65.5573 37.9592 66.5575 37.9592 67.3758 37.5955L76.832 32.9583L81.742 42.2326C82.1966 43.051 82.924 43.5965 83.8332 43.7784L94.1987 45.5969L92.7439 56.0532C92.6529 56.9625 92.9257 57.8717 93.5622 58.5991L100.836 66.1459L93.5622 73.6017Z" fill="white"/>
<path d="M57.8286 64.1885C61.3292 64.1885 64.1933 61.3243 64.1933 57.8237C64.1933 54.3231 61.3292 51.459 57.8286 51.459C54.328 51.459 51.4639 54.3231 51.4639 57.8237C51.4639 61.3243 54.328 64.1885 57.8286 64.1885ZM57.8286 55.6756C59.022 55.6756 59.9767 56.6303 59.9767 57.8237C59.9767 59.0171 59.022 59.9718 57.8286 59.9718C56.6352 59.9718 55.6805 59.0171 55.6805 57.8237C55.6805 56.6303 56.6352 55.6756 57.8286 55.6756Z" fill="white"/>
<path d="M79.0483 53.8482C78.2591 53.0871 76.9176 53.0871 76.1284 53.8482L53.8741 75.3113C53.0849 76.0724 53.0849 77.3663 53.8741 78.1274C54.2687 78.508 54.8211 78.7363 55.3735 78.7363C55.9259 78.7363 56.4783 78.508 56.8729 78.1274L79.1272 56.6643C79.8375 55.9032 79.8375 54.6093 79.0483 53.8482Z" fill="white"/>
<path d="M74.1953 67.8252C70.6947 67.8252 67.8306 70.6893 67.8306 74.1899C67.8306 77.6905 70.6947 80.5547 74.1953 80.5547C77.6959 80.5547 80.56 77.6905 80.56 74.1899C80.56 70.6893 77.6959 67.8252 74.1953 67.8252ZM74.1953 76.338C73.0019 76.338 72.0472 75.3833 72.0472 74.1899C72.0472 72.9965 73.0019 72.0418 74.1953 72.0418C75.3887 72.0418 76.3434 72.9965 76.3434 74.1899C76.3434 75.3833 75.3887 76.338 74.1953 76.338Z" fill="white"/>
</svg>
