<svg width="162" height="162" viewBox="0 0 162 162" fill="none" xmlns="http://www.w3.org/2000/svg">
<circle cx="81" cy="81" r="81" fill="#D9D9D9"/>
<path d="M33 108.544V69.635C33 63.5263 39.57 59.6715 44.9026 62.6514L84.0727 84.5406C87.0269 86.1915 88.6228 89.5227 88.0579 92.8594L83.0423 122.489C82.206 127.43 77.0847 130.395 72.3836 128.659L38.2291 116.048C35.0868 114.888 33 111.893 33 108.544Z" stroke="black" stroke-width="6" stroke-linecap="round"/>
<path d="M68 91L85 42" stroke="black" stroke-width="6" stroke-linecap="round"/>
<path d="M62 43.2575C66.5 43.7536 78.38 58.4382 89.9 65.582C104.3 74.5118 107 28.3746 122.3 35.816C137.6 43.2575 125 49.2107 134 76" stroke="black" stroke-width="6" stroke-linecap="round"/>
</svg>
