<svg width="132" height="132" viewBox="0 0 132 132" fill="none" xmlns="http://www.w3.org/2000/svg">
<circle cx="66" cy="66" r="66" fill="#3D3D3D"/>
<path fill-rule="evenodd" clip-rule="evenodd" d="M89.7645 91.1468H42.2645C39.6645 91.1468 37.8645 88.6468 38.7645 86.3468C43.2645 75.6468 53.7645 69.4467 65.9645 69.4467C78.1645 69.4467 88.6645 75.5468 93.1645 86.3468C94.1645 88.6468 92.3645 91.1468 89.7645 91.1468ZM51.2645 47.7467C51.2645 39.7467 57.8645 33.2467 66.0645 33.2467C74.1645 33.2467 80.8645 39.7467 80.8645 47.7467C80.8645 55.7467 74.2645 62.2467 66.0645 62.2467C57.8645 62.2467 51.2645 55.7467 51.2645 47.7467ZM102.064 89.8468C99.3645 77.7468 90.9645 68.7467 79.9645 64.6467C85.8645 60.0467 89.2645 52.5468 87.9645 44.3468C86.4645 34.8468 78.4645 27.2467 68.7645 26.1467C55.3645 24.6467 43.9645 34.8467 43.9645 47.7467C43.9645 54.5467 47.1645 60.6467 52.2645 64.6467C41.1645 68.7467 32.8645 77.6468 30.1645 89.8468C29.1645 94.2468 32.8645 98.4466 37.4645 98.4466H94.9645C99.3645 98.3466 103.064 94.2468 102.064 89.8468Z" fill="white"/>
</svg>
