<svg width="162" height="162" viewBox="0 0 162 162" fill="none" xmlns="http://www.w3.org/2000/svg">
<circle cx="81" cy="81" r="81" fill="#D9D9D9"/>
<path d="M30.1924 72.3076L43.3076 59.1924C48.3844 54.1156 56.6156 54.1156 61.6924 59.1924L74.8076 72.3076C79.8844 77.3844 79.8844 85.6156 74.8076 90.6924L61.6924 103.808C56.6156 108.884 48.3844 108.884 43.3076 103.808L30.1924 90.6924C25.1156 85.6156 25.1156 77.3844 30.1924 72.3076Z" stroke="black" stroke-width="6"/>
<path d="M60.25 73.75C64.5302 78.0302 64.5302 84.9698 60.25 89.25C55.9698 93.5302 49.0302 93.5302 44.75 89.25C40.4698 84.9698 40.4698 78.0302 44.75 73.75C49.0302 69.4698 55.9698 69.4698 60.25 73.75Z" stroke="black" stroke-width="6"/>
<path d="M51 51L146.773 69.3807C147.743 69.5669 147.884 70.8975 146.975 71.2833L51 112" stroke="black" stroke-width="5"/>
</svg>
