<svg width="98" height="107" viewBox="0 0 98 107" fill="none" xmlns="http://www.w3.org/2000/svg">
<path fill-rule="evenodd" clip-rule="evenodd" d="M16.664 14.3022C9.58397 14.3022 3.87748 20.6338 3.87748 28.4895V71.9588C3.87748 79.8144 9.58398 86.1461 16.664 86.1461H22.0851C23.1558 86.1461 24.0238 87.1092 24.0238 88.2972V100.589L41.1574 86.5661C41.4907 86.2933 41.894 86.1461 42.3082 86.1461H71.3359C78.4159 86.1461 84.1225 79.8143 84.1225 71.9588V43.2921C84.1225 42.1041 84.9905 41.141 86.0613 41.141C87.132 41.141 88 42.1041 88 43.2921V71.9588C88 82.1904 80.5574 90.4483 71.3359 90.4483H42.9459L23.2359 106.58C22.6472 107.062 21.8642 107.135 21.2112 106.769C20.5581 106.403 20.1463 105.661 20.1463 104.849V90.4483H16.664C7.44248 90.4483 0 82.1904 0 71.9588V28.4895C0 18.2578 7.4425 10 16.664 10H55.5725C56.6432 10 57.5112 10.9631 57.5112 12.1511C57.5112 13.3392 56.6432 14.3022 55.5725 14.3022H16.664Z" fill="black"/>
<path fill-rule="evenodd" clip-rule="evenodd" d="M84.14 6.02967L91.9699 13.8596C95.3 17.1897 95.3 22.5888 91.9699 25.9189L84.14 33.7488C80.8099 37.0789 75.4108 37.0789 72.0807 33.7488L64.2508 25.9189C60.9207 22.5888 60.9207 17.1897 64.2508 13.8596L72.0807 6.02967C75.4108 2.69958 80.8099 2.69957 84.14 6.02967ZM81.9474 8.22228C79.8283 6.10313 76.3924 6.10313 74.2733 8.22228L66.4434 16.0522C64.3242 18.1713 64.3242 21.6072 66.4434 23.7263L74.2733 31.5562C76.3924 33.6754 79.8283 33.6754 81.9474 31.5562L89.7773 23.7263C91.8965 21.6072 91.8965 18.1713 89.7773 16.0522L81.9474 8.22228Z" fill="black"/>
</svg>
