<svg width="99" height="104" viewBox="0 0 99 104" fill="none" xmlns="http://www.w3.org/2000/svg">
<path d="M4 28.3214C6.20698 37.2453 11.5805 54.0375 25.6859 70.3499C41.6145 88.9655 60.1338 96.8335 68.9618 100C71.4566 100 75.103 99.7125 79.133 98.0811C87.865 94.4348 91.8951 87.046 92.9506 84.7433C92.2788 82.4401 90.9356 78.9858 88.0571 75.5316C83.6429 70.0623 78.1735 67.8551 75.6788 66.9917C72.5121 68.4309 67.4265 72.461 65.5076 75.2434C53.2252 71.2134 31.4432 48.6638 27.797 34.6545C30.4837 32.6394 33.1705 30.6243 35.8572 28.6093C35.8572 26.7861 35.3774 21.3167 31.2513 16.2311C27.797 12.009 23.5749 10.2818 21.7518 9.70605C15.8025 11.0494 4.95954 22.5641 4 28.4174V28.3214Z" stroke="black" stroke-width="7" stroke-linecap="round" stroke-linejoin="round"/>
<path d="M48.9668 25.1064L63.7117 32.1103C66.0285 33.2107 67.8338 35.1593 68.7546 37.5533L74.203 51.7192" stroke="black" stroke-width="7"/>
<path d="M53.5547 4L80.4104 17.0209C82.6182 18.0914 84.3554 19.9362 85.2914 22.2042L95.768 47.5898" stroke="black" stroke-width="7"/>
</svg>
