<svg width="162" height="162" viewBox="0 0 162 162" fill="none" xmlns="http://www.w3.org/2000/svg">
<circle cx="81" cy="81" r="81" fill="#D9D9D9"/>
<path d="M46.364 56.136L74.136 28.364C77.6508 24.8492 83.3492 24.8492 86.864 28.364L114.636 56.136C118.151 59.6508 118.151 65.3492 114.636 68.864L86.864 96.636C83.3492 100.151 77.6508 100.151 74.136 96.636L46.364 68.864C42.8492 65.3492 42.8492 59.6508 46.364 56.136Z" stroke="black" stroke-width="6"/>
<path d="M69.7782 114.722L72.7218 111.778C77.0176 107.482 83.9824 107.482 88.2782 111.778L91.2218 114.722C95.5176 119.018 95.5176 125.982 91.2218 130.278L88.2782 133.222C83.9824 137.518 77.0176 137.518 72.7218 133.222L69.7782 130.278C65.4824 125.982 65.4824 119.018 69.7782 114.722Z" stroke="black" stroke-width="6"/>
<path d="M80 100L80 108" stroke="black" stroke-width="6"/>
</svg>
