<svg width="132" height="132" viewBox="0 0 132 132" fill="none" xmlns="http://www.w3.org/2000/svg">
<rect width="132" height="132" rx="62" fill="#3D3D3D"/>
<rect x="51.7328" y="47.3461" width="12.6626" height="12.6626" rx="4" transform="rotate(0.734744 51.7328 47.3461)" stroke="white" stroke-width="4"/>
<rect x="73.8715" y="69.4853" width="12.6626" height="12.6626" rx="4" transform="rotate(0.734744 73.8715 69.4853)" stroke="white" stroke-width="4"/>
<path d="M80.0502 49.294L52.0098 79.0923L54.8156 82.0712L82.856 52.2729L80.0502 49.294ZM109.866 53.5026V37.7159C109.866 33.4553 106.411 30 102.15 30H32.7159C28.4553 30.0087 25 33.4553 25 37.7159V53.494C30.5249 54.8016 34.647 59.755 34.647 65.6783C34.647 71.6016 30.5249 76.555 25 77.8626V93.658C25 97.9186 28.4553 101.374 32.7159 101.374H102.15C106.411 101.374 109.866 97.9186 109.866 93.658V77.8712C104.341 76.5636 100.219 71.6102 100.219 65.6869C100.219 59.7637 104.341 54.8103 109.866 53.5026ZM96.3652 65.6869C96.3652 72.329 100.323 78.0444 106.012 80.6164V93.658C106.012 95.7883 104.28 97.5116 102.159 97.5116H32.7159C30.5856 97.5116 28.8623 95.7797 28.8623 93.658V80.6164C34.5431 78.0444 38.5093 72.329 38.5093 65.6869C38.5093 59.0449 34.5517 53.3294 28.8623 50.7575V37.7159C28.8623 35.5856 30.5942 33.8623 32.7159 33.8623H102.15C104.28 33.8623 106.004 35.5942 106.004 37.7159V50.7575C100.323 53.3294 96.3652 59.0449 96.3652 65.6869Z" fill="white" stroke="white" stroke-width="2"/>
</svg>
