<svg width="132" height="132" viewBox="0 0 132 132" fill="none" xmlns="http://www.w3.org/2000/svg">
<rect width="132" height="132" rx="62" fill="#3D3D3D"/>
<path d="M108.833 65.9167C108.833 71.3464 101.619 75.214 99.6847 79.9001C97.7507 84.5858 99.9078 92.6186 96.2634 96.2634C92.6186 99.9078 84.7345 97.6766 79.9001 99.6847C75.0653 101.693 71.2719 108.833 65.9167 108.833C60.5615 108.833 56.6193 101.619 51.9334 99.6847C47.2475 97.7507 39.2146 99.9078 35.5701 96.2634C31.9255 92.6186 34.1569 84.7345 32.1486 79.9001C30.1404 75.0653 23 71.2719 23 65.9167C23 60.5615 30.2148 56.6193 32.1486 51.9334C34.0825 47.2475 31.9255 39.2146 35.5701 35.5701C39.2146 31.9255 47.0988 34.1569 51.9334 32.1486C56.768 30.1404 60.5615 23 65.9167 23C71.2719 23 75.214 30.2148 79.9001 32.1486C84.5858 34.0825 92.6186 31.9255 96.2634 35.5701C99.9078 39.2146 97.6766 47.0988 99.6847 51.9334C101.693 56.768 108.833 60.5615 108.833 65.9167Z" stroke="white" stroke-width="8" stroke-linecap="round" stroke-linejoin="round"/>
<rect x="65.9941" y="48.0326" width="24.0801" height="24.0801" rx="7.5" transform="rotate(45 65.9941 48.0326)" stroke="white" stroke-width="5"/>
</svg>
