<svg width="162" height="162" viewBox="0 0 162 162" fill="none" xmlns="http://www.w3.org/2000/svg">
<circle cx="81" cy="81" r="81" fill="#D9D9D9"/>
<path d="M67.2363 49.0875L39.4854 41.2644C37.3851 40.6724 35.3755 42.4495 35.7061 44.6064L47.4472 121.206C47.5998 122.201 48.2416 123.054 49.156 123.476L67.0375 131.724C67.4315 131.906 67.8602 132 68.2941 132H103.07C103.611 132 104.143 131.853 104.608 131.576L118.095 123.524C118.863 123.066 119.387 122.288 119.523 121.403L131.261 44.824C131.599 42.6134 129.487 40.8226 127.362 41.5184L104.352 49.0511C104.051 49.1497 103.736 49.2 103.419 49.2H68.0503C67.7751 49.2 67.5012 49.1621 67.2363 49.0875Z" stroke="black" stroke-width="5"/>
<path d="M36 43L58.8531 68.6416C62.4582 72.6866 67.6188 75 73.0372 75H94.561C100.552 75 106.192 72.1743 109.779 67.3756L128 43" stroke="black" stroke-width="5"/>
</svg>
