<svg width="132" height="132" viewBox="0 0 132 132" fill="none" xmlns="http://www.w3.org/2000/svg">
<circle cx="66" cy="66" r="66" fill="#3D3D3D"/>
<path d="M63.2715 76.6413C63.369 78.0073 64.5399 78.9831 65.906 78.9831C66.0036 78.9831 66.1011 78.9831 66.1987 78.9831C67.6624 78.788 68.6381 77.5195 68.5405 76.1534L67.3696 64.5419C67.1745 63.0783 65.906 62.1025 64.5399 62.2001C63.0763 62.3952 62.1005 63.6637 62.1981 65.0298L63.2715 76.6413Z" fill="white"/>
<path d="M79.5664 78.9831C79.664 78.9831 79.7616 78.9831 79.8591 78.9831C81.2252 78.9831 82.2985 78.0073 82.4937 76.6413L83.567 65.0298C83.7622 63.5661 82.6888 62.2976 81.2252 62.2001C79.7616 62.1025 78.4931 63.0783 78.3955 64.5419L77.2246 76.1534C77.0294 77.5195 78.1028 78.788 79.5664 78.9831Z" fill="white"/>
<path d="M59.3683 90.3027C54.8798 90.3027 51.2695 93.913 51.2695 98.4015C51.2695 102.89 54.8798 106.5 59.3683 106.5C63.8568 106.5 67.4671 102.89 67.4671 98.4015C67.4671 93.913 63.8568 90.3027 59.3683 90.3027ZM59.3683 101.231C57.8071 101.231 56.5386 99.9627 56.5386 98.4015C56.5386 96.8403 57.8071 95.5718 59.3683 95.5718C60.9295 95.5718 62.198 96.8403 62.198 98.4015C62.198 99.8652 60.9295 101.231 59.3683 101.231Z" fill="white"/>
<path d="M86.299 90.3027C81.8105 90.3027 78.2002 93.913 78.2002 98.4015C78.2002 102.89 81.8105 106.5 86.299 106.5C90.7875 106.5 94.3978 102.89 94.3978 98.4015C94.3002 93.913 90.6899 90.3027 86.299 90.3027ZM86.299 101.231C84.7378 101.231 83.4693 99.9627 83.4693 98.4015C83.4693 96.8403 84.7378 95.5718 86.299 95.5718C87.8602 95.5718 89.1287 96.8403 89.1287 98.4015C89.1287 99.8652 87.8602 101.231 86.299 101.231Z" fill="white"/>
<path d="M101.814 53.4184C101.326 52.7354 100.545 52.4426 99.7646 52.4426H47.8543L45.7077 44.0511C45.4149 42.8802 44.3416 42.0996 43.1707 42.0996H32.5349C31.0713 42.0996 29.9004 43.2705 29.9004 44.7342C29.9004 46.1978 31.0713 47.3687 32.5349 47.3687H41.2192L43.3658 55.6626V55.7602L51.3671 86.6917C51.6598 87.8626 52.7331 88.6432 53.904 88.6432H91.6659C92.8368 88.6432 93.9101 87.8626 94.2028 86.6917L102.302 55.6626C102.497 54.882 102.302 54.1014 101.814 53.4184ZM89.7143 83.4717H55.9531L49.2204 57.7117H96.4471L89.7143 83.4717Z" fill="white"/>
<path d="M62.5883 44.3441C63.0762 44.8319 63.7592 45.1247 64.4423 45.1247C65.1253 45.1247 65.8083 44.8319 66.2962 44.3441C67.272 43.3683 67.272 41.7095 66.2962 40.6362L58.0999 32.4398C57.1241 31.4641 55.4653 31.4641 54.392 32.4398C53.4162 33.4156 53.4162 35.0744 54.392 36.1477L62.5883 44.3441Z" fill="white"/>
<path d="M81.2254 45.1247C81.9084 45.1247 82.5915 44.8319 83.0793 44.3441L91.2757 36.1477C92.2515 35.1719 92.2515 33.5132 91.2757 32.4398C90.3 31.4641 88.6412 31.4641 87.5678 32.4398L79.3715 40.6362C78.3957 41.6119 78.3957 43.2707 79.3715 44.3441C79.8593 44.8319 80.5424 45.1247 81.2254 45.1247Z" fill="white"/>
<path d="M72.8338 42.783C74.2974 42.783 75.4683 41.6121 75.4683 40.1485V28.537C75.4683 27.1709 74.2974 26 72.8338 26C71.3701 26 70.1992 27.1709 70.1992 28.6345V40.2461C70.1992 41.6121 71.3701 42.783 72.8338 42.783Z" fill="white"/>
</svg>
