<svg width="132" height="132" viewBox="0 0 132 132" fill="none" xmlns="http://www.w3.org/2000/svg">
<rect width="132" height="132" rx="62" fill="#3D3D3D"/>
<path d="M94.2194 106H39.8193C31.1737 106 25.0547 97.7233 26.1206 87.9886L31.0512 52.4788C31.8802 44.9118 38.3546 39 45.5 39H89.5218C96.667 39 103.142 44.9118 103.97 52.4788L107.879 87.9886C108.945 97.7233 102.865 106 94.18 106H94.2194Z" stroke="white" stroke-width="7" stroke-linecap="round" stroke-linejoin="round"/>
<path d="M57.0734 24.7027L53.8162 34.2027C52.9261 36.799 54.8554 39.5 57.6 39.5H77.1103C80.0637 39.5 81.9987 36.4091 80.7083 33.7524L76.094 24.2524C75.4248 22.8746 74.0276 22 72.496 22H60.8571C59.148 22 57.6277 23.0859 57.0734 24.7027Z" stroke="white" stroke-width="6"/>
</svg>
