<svg width="162" height="162" viewBox="0 0 162 162" fill="none" xmlns="http://www.w3.org/2000/svg">
<circle cx="81" cy="81" r="81" fill="#D9D9D9"/>
<rect x="40" y="39" width="86" height="86" rx="7" stroke="black" stroke-width="6"/>
<path d="M78.9755 44.2414L80.0444 42.7614C81.3604 40.9392 83.4714 39.8599 85.7191 39.8599H119C122.866 39.8599 126 42.9939 126 46.8599V51.0136C126 53.665 124.502 56.0889 122.13 57.2746L104.842 65.919C101.129 67.7755 96.76 65.0755 96.76 60.9242C96.76 57.8401 94.2598 55.3399 91.1756 55.3399H84.6503C78.9399 55.3399 75.6321 48.8707 78.9755 44.2414Z" stroke="black" stroke-width="6"/>
<path d="M47.994 107.325L43.9431 110.616C41.5914 112.527 40.7361 115.734 41.8238 118.562L42.5742 120.513C43.6139 123.216 46.2112 125 49.1076 125H74.8455C80.113 125 83.4932 119.401 81.0399 114.74L80.4564 113.631C78.9278 110.727 75.5866 109.275 72.4202 110.138L63.6319 112.535C60.9122 113.277 58.0547 111.945 56.8733 109.386C55.295 105.966 50.9171 104.95 47.994 107.325Z" stroke="black" stroke-width="6"/>
</svg>
