<svg width="162" height="162" viewBox="0 0 162 162" fill="none" xmlns="http://www.w3.org/2000/svg">
<circle cx="81" cy="81" r="81" fill="#D9D9D9"/>
<path d="M58.2748 88.0985L35.5713 110.513C33.5031 112.554 35.2561 116.05 38.1294 115.613L76.3505 109.808C76.4996 109.786 76.6502 109.774 76.801 109.774H107.131C108.525 109.774 109.735 108.814 110.052 107.457L114.524 88.3284C114.81 87.104 114.302 85.8309 113.252 85.1396L77.3251 61.4941C76.8354 61.1718 76.262 61 75.6758 61H47.6819C45.2334 61 43.8161 63.7748 45.2514 65.7585L58.5977 84.2051C59.4657 85.4048 59.3285 87.0582 58.2748 88.0985Z" stroke="black" stroke-width="6"/>
<path d="M126 38L103.511 68.8774" stroke="black" stroke-width="6"/>
<path d="M118 33L132.784 43.2682" stroke="black" stroke-width="6" stroke-linecap="round"/>
<path d="M99.1279 67.512L102.593 66.8874C104.092 66.6172 105.555 67.5127 105.996 68.9702L107.159 72.8091C107.983 75.5305 104.912 77.7648 102.577 76.1427L97.9487 72.9284C95.7535 71.4037 96.4975 67.9861 99.1279 67.512Z" stroke="black" stroke-width="4"/>
</svg>
