<svg width="162" height="162" viewBox="0 0 162 162" fill="none" xmlns="http://www.w3.org/2000/svg">
<circle cx="81" cy="81" r="81" fill="#D9D9D9"/>
<path d="M130.008 26.9424L94.2846 75.9903" stroke="black" stroke-width="6"/>
<path d="M117.3 19L140.784 35.3108" stroke="black" stroke-width="6" stroke-linecap="round"/>
<path d="M83.1277 74.5777L94.3736 72.5506C95.8723 72.2805 97.3356 73.176 97.777 74.6334L101.551 87.0923C102.375 89.8137 99.3034 92.048 96.968 90.4259L81.9485 79.9941C79.7533 78.4694 80.4974 75.0518 83.1277 74.5777Z" stroke="black" stroke-width="4"/>
<rect x="50.5" y="30.5" width="51" height="99" rx="3.5" stroke="black" stroke-width="7"/>
<path d="M50 62L60.7006 53.5115C64.0484 50.8558 66 46.8166 66 42.5434V29" stroke="black" stroke-width="7"/>
<path d="M84 29V58.4125C84 62.9614 81.7899 67.2267 78.0736 69.85L71.1786 74.7171C70.2848 75.348 69.3202 75.8719 68.3045 76.2782L49 84" stroke="black" stroke-width="7"/>
<path d="M50 131L56.8161 119.564C58.3077 117.062 60.5428 115.087 63.21 113.915L80.0822 106.501C81.5478 105.857 82.8921 104.967 84.0566 103.868L103 86" stroke="black" stroke-width="7"/>
</svg>
