<svg width="162" height="162" viewBox="0 0 162 162" fill="none" xmlns="http://www.w3.org/2000/svg">
<circle cx="81" cy="81" r="81" fill="#D9D9D9"/>
<path d="M25 51.0596L25 110.94C25 113.185 26.824 115 29.0681 115L125.932 115C128.176 115 130 113.185 130 110.94L130 51.0596C130 48.8149 128.176 47 125.932 47L29.0681 47C26.8239 47 25 48.8149 25 51.0596ZM29.0681 111.47C28.7705 111.47 28.534 111.23 28.534 110.94L28.534 51.0596C28.534 50.7696 28.7705 50.5298 29.0681 50.5298L125.932 50.5298C126.229 50.5298 126.466 50.7696 126.466 51.0596L126.466 110.94C126.466 111.23 126.229 111.47 125.932 111.47L29.0681 111.47Z" fill="black" stroke="black" stroke-width="2"/>
<path fill-rule="evenodd" clip-rule="evenodd" d="M128 107.5C128 106.672 128.358 106 128.8 106L135.2 106C135.642 106 136 106.672 136 107.5C136 108.328 135.642 109 135.2 109L128.8 109C128.358 109 128 108.328 128 107.5Z" fill="black"/>
<path fill-rule="evenodd" clip-rule="evenodd" d="M128 93.5C128 93.2239 128.358 93 128.8 93L135.2 93C135.642 93 136 93.2239 136 93.5C136 93.7761 135.642 94 135.2 94L128.8 94C128.358 94 128 93.7761 128 93.5Z" fill="black"/>
<path fill-rule="evenodd" clip-rule="evenodd" d="M128 80.5C128 80.2239 128.358 80 128.8 80L135.2 80C135.642 80 136 80.2239 136 80.5C136 80.7761 135.642 81 135.2 81L128.8 81C128.358 81 128 80.7761 128 80.5Z" fill="black"/>
<path fill-rule="evenodd" clip-rule="evenodd" d="M128 67.5C128 67.2239 128.358 67 128.8 67L135.2 67C135.642 67 136 67.2239 136 67.5C136 67.7761 135.642 68 135.2 68L128.8 68C128.358 68 128 67.7761 128 67.5Z" fill="black"/>
<path fill-rule="evenodd" clip-rule="evenodd" d="M128 54C128 53.4477 128.358 53 128.8 53L135.2 53C135.642 53 136 53.4477 136 54C136 54.5523 135.642 55 135.2 55L128.8 55C128.358 55 128 54.5523 128 54Z" fill="black"/>
<path d="M28 104L28 98L128 98L128 104L28 104Z" fill="black"/>
<path d="M28 88L28 74L128 74L128 88L28 88Z" fill="black"/>
<path d="M28 64L28 57L128 57L128 64L28 64Z" fill="black"/>
</svg>
