<svg width="132" height="132" viewBox="0 0 132 132" fill="none" xmlns="http://www.w3.org/2000/svg">
<circle cx="66" cy="66" r="66" fill="#3D3D3D"/>
<path d="M108 57.2079C108 55.411 107.717 53.8033 107.244 52.2902C107.244 52.0065 107.244 52.0065 106.96 51.7228L99.8674 34.1327C98.5434 30.4445 95.1389 28.1748 90.9778 28.1748H41.423C37.2619 28.1748 34.1411 30.2553 32.8171 33.9436L25.2515 51.9119C25.2515 51.9119 25.2515 52.1956 25.2515 52.4793C24.6841 53.9925 24.4004 55.8839 24.4004 57.6807C24.4004 62.4092 26.1972 66.5703 29.6018 69.6911V96.0762C29.6018 100.237 33.0063 103.926 37.4511 103.926H94.0986C98.2597 103.926 101.948 100.521 101.948 96.0762V70.7314C105.636 66.854 108 62.1255 108 57.2079ZM94.0986 97.1165H37.4511C36.4108 97.1165 35.8434 96.3599 35.8434 95.5088V72.8119C37.4511 73.3794 39.2479 73.5685 41.3285 73.5685C46.2461 73.5685 50.6909 71.488 53.9063 67.6106C57.0271 71.2988 61.4719 73.3794 66.4841 73.3794C71.4964 73.3794 75.8466 71.2988 79.062 67.4214C82.1828 71.1097 86.9113 73.3794 91.8289 73.3794C93.4366 73.3794 94.6661 73.0956 95.99 72.8119V95.3196C95.7063 96.3599 94.9498 97.1165 94.0986 97.1165ZM96.4629 66.2866C95.1389 67.0432 93.3421 67.3269 91.5452 67.3269C87.857 67.3269 84.4525 65.53 82.6556 62.4092C82.3719 62.1255 82.3719 61.6527 81.8991 61.0852C81.3317 60.5178 80.5751 59.7613 79.062 59.7613C77.738 59.7613 76.6977 60.3287 76.2249 61.0852C75.6574 61.6527 75.6574 61.8418 75.4683 62.4092C73.6715 65.53 70.2669 67.3269 66.5787 67.3269C62.8905 67.3269 59.4859 65.53 57.6891 62.4092C57.4054 62.1255 57.4054 61.6527 56.9325 61.3689C55.6086 59.7613 52.204 59.7613 51.1638 61.3689C50.5963 61.9364 50.4072 62.4092 50.4072 62.6929C48.6104 65.8137 45.2058 67.6106 41.5176 67.6106C39.7208 67.6106 37.8294 67.3269 36.5999 66.5703C33.1954 64.7735 31.1149 61.0852 31.1149 57.2079C31.1149 56.1676 31.3986 54.8436 31.6823 53.8033V53.5196L39.2479 35.7404C39.5316 35.173 39.8153 33.9436 42.085 33.9436H91.5452C92.5855 33.9436 94.1932 34.2273 94.6661 35.7404L101.759 53.2359V53.5196C102.043 54.5599 102.326 55.8839 102.326 56.9241C101.948 60.8015 99.8674 64.4898 96.4629 66.2866Z" fill="white"/>
</svg>
